<?xml version="1.0" encoding="iso-8859-1"?>
<!-- Generator: Adobe Illustrator 18.1.1, SVG Export Plug-In . SVG Version: 6.00 Build 0)  -->
<svg xmlns="http://www.w3.org/2000/svg" xmlns:xlink="http://www.w3.org/1999/xlink" version="1.1" id="Capa_1" x="0px" y="0px" viewBox="0 0 204.095 204.095" style="enable-background:new 0 0 204.095 204.095;" xml:space="preserve" width="512px" height="512px">
<g>
	<g>
		<rect x="51.349" y="100.462" width="40.999" height="4.595" fill="#406331"/>
		<path d="M204.095,74.995l-25.811-34.246l0.075-0.064h-0.132l-0.115-0.154l-0.197,0.154h-35.864    l4.806-13.385l-43.83-9.505L97.953,2.215L37.349,19.286l8.453,31.999L9.967,79.765v1.535L0,111.7l9.967-7.269v97.449h122.114    v-0.293l46.185-41.082v-59.459L204.095,74.995z M198.025,74.58l-40.896,41.253l-24.401-33.348l42.152-38.612L198.025,74.58z     M166.538,45.276l-37.65,34.489h-0.898l12.404-34.489C140.395,45.276,166.538,45.276,166.538,45.276z M123.109,79.765H62.913    l22.014-61.195l55.837,12.114L123.109,79.765z M94.95,7.838l2.877,8.825L81.959,13.22l-23.9,66.445L42.953,22.486L94.95,7.838z     M47.284,56.875l6.045,22.89H18.757L47.284,56.875z M127.479,197.284H14.559V84.361h112.92V197.284z M173.674,158.446    l-41.593,36.987V89.378l24.515,33.512l17.078-17.211C173.674,105.68,173.674,158.446,173.674,158.446z" fill="#406331"/>
	</g>
</g>
<g>
</g>
<g>
</g>
<g>
</g>
<g>
</g>
<g>
</g>
<g>
</g>
<g>
</g>
<g>
</g>
<g>
</g>
<g>
</g>
<g>
</g>
<g>
</g>
<g>
</g>
<g>
</g>
<g>
</g>
</svg>
