<?xml version="1.0" encoding="iso-8859-1"?>
<!DOCTYPE svg PUBLIC "-//W3C//DTD SVG 1.1//EN" "http://www.w3.org/Graphics/SVG/1.1/DTD/svg11.dtd">
<svg xmlns="http://www.w3.org/2000/svg" xmlns:xlink="http://www.w3.org/1999/xlink" version="1.1" viewBox="0 0 222.875 222.875" enable-background="new 0 0 222.875 222.875" width="512px" height="512px">
  <path d="m220.679,136.597l-39.27-39.27c-2.929-2.929-7.678-2.929-10.606-0.001l-10.846,10.845c-0.653-9.445-1.968-18.553-3.884-27.087-0.056-0.321-0.124-0.637-0.219-0.942-0.527-2.283-1.09-4.532-1.704-6.725l19.017-19.013 33.966,33.324c1.46,1.433 3.358,2.146 5.253,2.146 1.943,0 3.885-0.751 5.354-2.248 2.901-2.956 2.855-7.705-0.101-10.606l-39.269-38.526c-2.938-2.881-7.645-2.859-10.556,0.05l-19.165,19.161c-0.346-0.805-0.689-1.613-1.05-2.396-5.956-12.952-13.49-22.106-21.944-26.91l10.548-10.548h68.211c4.143,0 7.5-3.358 7.5-7.5s-3.357-7.5-7.5-7.5h-71.317c-1.989,0-3.896,0.79-5.304,2.197l-16.355,16.354-16.354-16.352c-1.407-1.407-3.315-2.197-5.304-2.197h-71.318c-4.143,0-7.5,3.358-7.5,7.5s3.357,7.5 7.5,7.5h68.212l10.547,10.548c-8.454,4.804-15.989,13.958-21.945,26.91-0.36,0.783-0.703,1.591-1.05,2.395l-19.162-19.16c-2.909-2.909-7.618-2.93-10.555-0.05l-39.27,38.526c-2.957,2.901-3.003,7.649-0.102,10.606 1.469,1.497 3.41,2.248 5.353,2.248 1.896,0 3.793-0.714 5.252-2.146l33.969-33.325 19.014,19.012c-0.671,2.397-1.285,4.857-1.853,7.363-0.008,0.037-0.018,0.073-0.025,0.11-1.939,8.59-3.271,17.764-3.929,27.281l-10.845-10.844c-2.928-2.929-7.677-2.928-10.606,0.001l-39.271,39.27c-2.929,2.929-2.929,7.677 0,10.606 1.465,1.465 3.384,2.197 5.304,2.197 1.919,0 3.839-0.732 5.304-2.197l33.967-33.967 15.786,15.784c0.424,12.934 2.055,25.382 4.783,36.737h-23.31c-4.143,0-7.5,3.358-7.5,7.5v39.265c0,4.142 3.357,7.5 7.5,7.5s7.5-3.358 7.5-7.5v-31.765h20.296c1.068,2.935 2.212,5.77 3.45,8.462 9.134,19.863 21.977,30.803 36.162,30.803 0.002,0 0.003,0 0.005,0 0,0 0.001,0 0.002,0 0.002,0 0.004,0 0.007,0 14.18-0.006 27.017-10.945 36.147-30.802 1.237-2.692 2.382-5.527 3.45-8.462h20.297v31.765c0,4.142 3.357,7.5 7.5,7.5 4.143,0 7.5-3.358 7.5-7.5v-39.265c0-4.142-3.357-7.5-7.5-7.5h-23.313c2.729-11.354 4.36-23.802 4.784-36.735l15.787-15.786 33.967,33.966c1.465,1.464 3.385,2.197 5.304,2.197s3.839-0.732 5.304-2.197c2.929-2.929 2.929-7.678 2.84217e-14-10.607zm-109.241-97.086c9.794,7.10543e-15 20.262,12.62 26.957,33.49 0.094,0.398 0.216,0.791 0.375,1.173 0.073,0.234 0.146,0.466 0.219,0.702h-55.102c0.07-0.232 0.143-0.461 0.214-0.691 0.165-0.392 0.291-0.796 0.386-1.206 6.695-20.857 17.16-33.468 26.951-33.468zm-26.946,132.058c-0.1-0.43-0.229-0.849-0.399-1.247-4.078-13.197-6.659-29.56-6.659-48.058 0-11.747 1.048-22.624 2.852-32.388h23.659v112.79c-7.355-4.553-14.453-15.527-19.453-31.097zm34.453,31.089v-112.782h23.646c1.803,9.763 2.851,20.641 2.851,32.388 0,18.502-2.583,34.87-6.662,48.068-0.164,0.387-0.29,0.794-0.388,1.21-4.999,15.575-12.094,26.555-19.447,31.116z" fill="#406331"/>
</svg>
