<?xml version="1.0" encoding="iso-8859-1"?>
<!-- Generator: Adobe Illustrator 18.0.0, SVG Export Plug-In . SVG Version: 6.00 Build 0)  -->
<!DOCTYPE svg PUBLIC "-//W3C//DTD SVG 1.1//EN" "http://www.w3.org/Graphics/SVG/1.1/DTD/svg11.dtd">
<svg xmlns="http://www.w3.org/2000/svg" xmlns:xlink="http://www.w3.org/1999/xlink" version="1.1" id="Capa_1" x="0px" y="0px" viewBox="0 0 295.428 295.428" style="enable-background:new 0 0 295.428 295.428;" xml:space="preserve" width="512px" height="512px">
<path d="M147.714,0C66.264,0,0,66.264,0,147.714s66.264,147.714,147.714,147.714c81.45,0,147.714-66.264,147.714-147.714  S229.164,0,147.714,0z M147.714,232.68c-8.284,0-15-6.716-15-15c0-8.284,6.716-15,15-15c8.284,0,15,6.716,15,15  C162.714,225.964,155.998,232.68,147.714,232.68z M162.714,155.68c0,8.284-6.716,15-15,15c-8.284,0-15-6.716-15-15v-79  c0-8.284,6.716-15,15-15c8.284,0,15,6.716,15,15V155.68z" fill="#406331"/>
<g>
</g>
<g>
</g>
<g>
</g>
<g>
</g>
<g>
</g>
<g>
</g>
<g>
</g>
<g>
</g>
<g>
</g>
<g>
</g>
<g>
</g>
<g>
</g>
<g>
</g>
<g>
</g>
<g>
</g>
</svg>
