<?xml version="1.0" encoding="iso-8859-1"?>
<!-- Generator: Adobe Illustrator 16.0.0, SVG Export Plug-In . SVG Version: 6.00 Build 0)  -->
<!DOCTYPE svg PUBLIC "-//W3C//DTD SVG 1.1//EN" "http://www.w3.org/Graphics/SVG/1.1/DTD/svg11.dtd">
<svg xmlns="http://www.w3.org/2000/svg" xmlns:xlink="http://www.w3.org/1999/xlink" version="1.1" id="Capa_1" x="0px" y="0px" width="512px" height="512px" viewBox="0 0 480.926 480.926" style="enable-background:new 0 0 480.926 480.926;" xml:space="preserve">
<g>
	<path d="M472.004,212.311l-28.993-28.994c-11.935-11.934-31.365-11.934-43.452,0L291.618,291.412V37.049   c0-16.906-13.847-30.676-30.677-30.676h-40.927c-16.907,0-30.677,13.617-30.677,30.676v254.209L81.396,183.317   c-11.934-11.934-31.365-11.934-43.452,0L8.95,212.311c-11.934,11.934-11.934,31.365,0,43.452l209.763,209.763   c5.967,5.968,13.847,9.027,21.649,9.027c7.879,0,15.683-3.06,21.65-9.027l209.763-209.763   C483.938,243.676,483.938,224.245,472.004,212.311z" fill="#406331"/>
</g>
<g>
</g>
<g>
</g>
<g>
</g>
<g>
</g>
<g>
</g>
<g>
</g>
<g>
</g>
<g>
</g>
<g>
</g>
<g>
</g>
<g>
</g>
<g>
</g>
<g>
</g>
<g>
</g>
<g>
</g>
</svg>
