<?xml version="1.0" encoding="iso-8859-1"?>
<!-- Generator: Adobe Illustrator 18.0.0, SVG Export Plug-In . SVG Version: 6.00 Build 0)  -->
<!DOCTYPE svg PUBLIC "-//W3C//DTD SVG 1.1//EN" "http://www.w3.org/Graphics/SVG/1.1/DTD/svg11.dtd">
<svg xmlns="http://www.w3.org/2000/svg" xmlns:xlink="http://www.w3.org/1999/xlink" version="1.1" id="Capa_1" x="0px" y="0px" viewBox="0 0 297 297" style="enable-background:new 0 0 297 297;" xml:space="preserve" width="512px" height="512px">
<g>
	<path d="M205.816,141.205h6.609c-3.364-29.663-26.967-53.266-56.63-56.63v6.609c0,4.029-3.266,7.295-7.295,7.295   s-7.295-3.266-7.295-7.295v-6.609c-29.663,3.364-53.266,26.967-56.63,56.63h6.609c4.029,0,7.295,3.266,7.295,7.295   s-3.266,7.295-7.295,7.295h-6.609c3.364,29.663,26.967,53.266,56.63,56.63v-6.609c0-4.029,3.266-7.295,7.295-7.295   s7.295,3.266,7.295,7.295v6.609c29.663-3.364,53.266-26.967,56.63-56.63h-6.609c-4.029,0-7.295-3.266-7.295-7.295   S201.787,141.205,205.816,141.205z M172.99,165.695c0,13.503-10.986,24.489-24.49,24.489s-24.49-10.986-24.49-24.489   c0-4.029,3.266-7.295,7.295-7.295c4.029,0,7.295,3.266,7.295,7.295c0,5.459,4.441,9.9,9.9,9.9s9.9-4.441,9.9-9.9   c0-5.459-4.441-9.9-9.9-9.9c-4.029,0-7.295-3.266-7.295-7.295s3.266-7.295,7.295-7.295c5.459,0,9.9-4.441,9.9-9.9   c0-5.459-4.441-9.9-9.9-9.9s-9.9,4.441-9.9,9.9c0,4.029-3.266,7.295-7.295,7.295c-4.029,0-7.295-3.266-7.295-7.295   c0-13.503,10.986-24.489,24.49-24.489s24.49,10.986,24.49,24.489c0,6.694-2.7,12.77-7.068,17.195   C170.29,152.925,172.99,159,172.99,165.695z" fill="#406331"/>
	<path d="M253.568,46.027H43.432c-4.4,0-8,3.6-8,8v188.947c0,4.4,3.6,8,8,8h210.137c4.4,0,8-3.6,8-8V54.027   C261.568,49.627,257.968,46.027,253.568,46.027z M234.474,155.795h-7.384c-3.474,37.715-33.58,67.821-71.295,71.295v7.384   c0,4.029-3.266,7.295-7.295,7.295s-7.295-3.266-7.295-7.295v-7.384c-37.715-3.474-67.821-33.58-71.295-71.295h-7.384   c-4.029,0-7.295-3.266-7.295-7.295s3.266-7.295,7.295-7.295h7.384c3.474-37.715,33.58-67.821,71.295-71.295v-7.384   c0-4.029,3.266-7.295,7.295-7.295s7.295,3.266,7.295,7.295v7.384c37.715,3.474,67.821,33.58,71.295,71.295h7.384   c4.029,0,7.295,3.266,7.295,7.295S238.503,155.795,234.474,155.795z" fill="#406331"/>
	<path d="M293,104.21h-12.842c-2.2,0-4,1.8-4,4v28.995c0,2.2,1.8,4,4,4H293c2.2,0,4-1.8,4-4V108.21   C297,106.01,295.2,104.21,293,104.21z" fill="#406331"/>
	<path d="M16.842,155.795H4c-2.2,0-4,1.8-4,4v28.995c0,2.2,1.8,4,4,4h12.842c2.2,0,4-1.8,4-4v-28.995   C20.842,157.595,19.042,155.795,16.842,155.795z" fill="#406331"/>
	<path d="M16.842,104.21H4c-2.2,0-4,1.8-4,4v28.995c0,2.2,1.8,4,4,4h12.842c2.2,0,4-1.8,4-4V108.21   C20.842,106.01,19.042,104.21,16.842,104.21z" fill="#406331"/>
	<path d="M16.842,207.379H4c-2.2,0-4,1.8-4,4v29.173c0,5.755,4.666,10.421,10.421,10.421h6.421c2.2,0,4-1.8,4-4v-35.594   C20.842,209.179,19.042,207.379,16.842,207.379z" fill="#406331"/>
	<path d="M293,207.379h-12.842c-2.2,0-4,1.8-4,4v35.594c0,2.2,1.8,4,4,4h6.421c5.755,0,10.421-4.666,10.421-10.421v-29.173   C297,209.179,295.2,207.379,293,207.379z" fill="#406331"/>
	<path d="M16.842,46.027h-6.421C4.666,46.027,0,50.693,0,56.448v29.173c0,2.2,1.8,4,4,4h12.842c2.2,0,4-1.8,4-4V50.027   C20.842,47.827,19.042,46.027,16.842,46.027z" fill="#406331"/>
	<path d="M293,155.795h-12.842c-2.2,0-4,1.8-4,4v28.995c0,2.2,1.8,4,4,4H293c2.2,0,4-1.8,4-4v-28.995   C297,157.595,295.2,155.795,293,155.795z" fill="#406331"/>
	<path d="M286.579,46.027h-6.421c-2.2,0-4,1.8-4,4v35.594c0,2.2,1.8,4,4,4H293c2.2,0,4-1.8,4-4V56.448   C297,50.693,292.334,46.027,286.579,46.027z" fill="#406331"/>
</g>
<g>
</g>
<g>
</g>
<g>
</g>
<g>
</g>
<g>
</g>
<g>
</g>
<g>
</g>
<g>
</g>
<g>
</g>
<g>
</g>
<g>
</g>
<g>
</g>
<g>
</g>
<g>
</g>
<g>
</g>
</svg>
