<?xml version="1.0" encoding="iso-8859-1"?>
<!-- Generator: Adobe Illustrator 19.1.0, SVG Export Plug-In . SVG Version: 6.00 Build 0)  -->
<svg version="1.1" id="Capa_1" xmlns="http://www.w3.org/2000/svg" xmlns:xlink="http://www.w3.org/1999/xlink" x="0px" y="0px"
	 viewBox="0 0 540.077 540.077" style="enable-background:new 0 0 540.077 540.077;" xml:space="preserve">
<g>
	<g>
		<path d="M531.076,72.01H9.001C4.033,72.01,0,76.042,0,81.011v378.055c0,4.968,4.032,9.001,9.001,9.001h522.076
			c4.968,0,9.001-4.033,9-9.001V81.011C540.077,76.043,536.045,72.01,531.076,72.01z M522.076,450.064H18.003V90.012h504.073
			V450.064z"/>
		<path d="M486.071,401.331l-38.638-38.638l-12.729,12.729l38.637,38.637h-50.279v18.002h72.01c4.968,0,9.001-4.032,9.002-9.001
			v-72.01h-18.003L486.071,401.331L486.071,401.331z"/>
		<path d="M54.008,138.747l38.649,38.649l12.729-12.729l-38.649-38.649h50.279v-18.003h-72.01c-4.968,0-9.001,4.032-9.001,9.001
			v72.01h18.003C54.008,189.026,54.008,138.747,54.008,138.747z"/>
		<path d="M434.691,164.668l12.729,12.729l38.649-38.649v50.278h18.002v-72.011c0-4.968-4.032-9.001-9.001-9.001h-72.01v18.003
			h50.282L434.691,164.668z"/>
		<path d="M105.374,375.421l-12.729-12.729l-38.636,38.635V351.05H36.006v72.01c0,4.968,4.032,9.001,9.001,9.001h72.01h0.001
			v-18.002H66.736L105.374,375.421z"/>
	</g>
</g>
<g>
</g>
<g>
</g>
<g>
</g>
<g>
</g>
<g>
</g>
<g>
</g>
<g>
</g>
<g>
</g>
<g>
</g>
<g>
</g>
<g>
</g>
<g>
</g>
<g>
</g>
<g>
</g>
<g>
</g>
</svg>
