<?xml version="1.0" encoding="iso-8859-1"?>
<!-- Generator: Adobe Illustrator 18.0.0, SVG Export Plug-In . SVG Version: 6.00 Build 0)  -->
<!DOCTYPE svg PUBLIC "-//W3C//DTD SVG 1.1//EN" "http://www.w3.org/Graphics/SVG/1.1/DTD/svg11.dtd">
<svg xmlns="http://www.w3.org/2000/svg" xmlns:xlink="http://www.w3.org/1999/xlink" version="1.1" id="Capa_1" x="0px" y="0px" viewBox="0 0 392.789 392.789" style="enable-background:new 0 0 392.789 392.789;" xml:space="preserve" width="512px" height="512px">
<path d="M353.383,269.036c-0.717,0-1.428,0.022-2.134,0.059l-22.625-46.539c6.184-6.959,9.948-16.119,9.948-26.162  c0-21.764-17.645-39.406-39.408-39.406c-4.656,0-9.121,0.813-13.268,2.295l-53.571-58.479c2.307-5.01,3.603-10.581,3.603-16.458  c0-21.763-17.643-39.405-39.406-39.405s-39.406,17.643-39.406,39.405c0,5.877,1.296,11.449,3.603,16.458l-53.572,58.48  c-4.146-1.483-8.612-2.296-13.269-2.296c-21.764,0-39.406,17.643-39.406,39.406c0,9.954,3.698,19.039,9.785,25.974L41.54,269.095  c-0.706-0.038-1.417-0.059-2.134-0.059C17.645,269.036,0,286.678,0,308.441c0,21.765,17.645,39.407,39.406,39.407  c21.764,0,39.408-17.642,39.408-39.407c0-9.954-3.699-19.039-9.787-25.975l22.715-46.725c0.707,0.038,1.418,0.059,2.135,0.059  c0.717,0,1.428-0.021,2.135-0.059l22.715,46.726c-6.087,6.936-9.785,16.02-9.785,25.974c0,21.765,17.643,39.407,39.406,39.407  s39.408-17.642,39.408-39.407c0-21.763-17.645-39.405-39.408-39.405c-0.717,0-1.428,0.022-2.134,0.059l-22.716-46.727  c6.087-6.936,9.785-16.021,9.785-25.974c0-5.876-1.296-11.448-3.603-16.457l53.573-58.48c4.146,1.483,8.611,2.296,13.268,2.296  c4.656,0,9.121-0.813,13.268-2.296l53.572,58.479c-2.308,5.01-3.604,10.581-3.604,16.459c0,9.865,3.633,18.876,9.624,25.788  l-22.807,46.913c-0.706-0.038-1.417-0.059-2.134-0.059c-21.764,0-39.406,17.643-39.406,39.405c0,21.765,17.643,39.407,39.406,39.407  c21.764,0,39.406-17.642,39.406-39.407c0-9.954-3.698-19.038-9.785-25.974l22.725-46.744c0.787,0.047,1.578,0.078,2.377,0.078  c0.633,0,1.262-0.018,1.888-0.048l22.71,46.714c-6.088,6.936-9.787,16.021-9.787,25.975c0,21.765,17.645,39.407,39.408,39.407  c21.764,0,39.406-17.642,39.406-39.407C392.789,286.678,375.147,269.036,353.383,269.036z" fill="#406331"/>
<g>
</g>
<g>
</g>
<g>
</g>
<g>
</g>
<g>
</g>
<g>
</g>
<g>
</g>
<g>
</g>
<g>
</g>
<g>
</g>
<g>
</g>
<g>
</g>
<g>
</g>
<g>
</g>
<g>
</g>
</svg>
