<?xml version="1.0" encoding="iso-8859-1"?>
<!-- Generator: Adobe Illustrator 18.0.0, SVG Export Plug-In . SVG Version: 6.00 Build 0)  -->
<!DOCTYPE svg PUBLIC "-//W3C//DTD SVG 1.1//EN" "http://www.w3.org/Graphics/SVG/1.1/DTD/svg11.dtd">
<svg xmlns="http://www.w3.org/2000/svg" xmlns:xlink="http://www.w3.org/1999/xlink" version="1.1" id="Capa_1" x="0px" y="0px" viewBox="0 0 357 357" style="enable-background:new 0 0 357 357;" xml:space="preserve" width="512px" height="512px">
<path d="M352,253.581h-35.5v-69.883c0-5.523-4.478-10-10-10h-118v-70.279h36.191c2.762,0,5-2.239,5-5V39.184c0-2.761-2.238-5-5-5  h-91c-2.762,0-5,2.239-5,5v59.235c0,2.761,2.238,5,5,5H168.5v70.279h-118c-5.522,0-10,4.477-10,10v69.883H5c-2.762,0-5,2.239-5,5  v59.235c0,2.761,2.238,5,5,5h91c2.762,0,5-2.239,5-5v-59.235c0-2.761-2.238-5-5-5H60.5v-59.883h108v59.883h-34.809  c-2.762,0-5,2.239-5,5v59.235c0,2.761,2.238,5,5,5h91c2.762,0,5-2.239,5-5v-59.235c0-2.761-2.238-5-5-5H188.5v-59.883h108v59.883  H261c-2.762,0-5,2.239-5,5v59.235c0,2.761,2.238,5,5,5h91c2.762,0,5-2.239,5-5v-59.235C357,255.82,354.762,253.581,352,253.581z" fill="#406331"/>
<g>
</g>
<g>
</g>
<g>
</g>
<g>
</g>
<g>
</g>
<g>
</g>
<g>
</g>
<g>
</g>
<g>
</g>
<g>
</g>
<g>
</g>
<g>
</g>
<g>
</g>
<g>
</g>
<g>
</g>
</svg>
