<?xml version="1.0" encoding="iso-8859-1"?>
<!-- Generator: Adobe Illustrator 18.0.0, SVG Export Plug-In . SVG Version: 6.00 Build 0)  -->
<!DOCTYPE svg PUBLIC "-//W3C//DTD SVG 1.1//EN" "http://www.w3.org/Graphics/SVG/1.1/DTD/svg11.dtd">
<svg xmlns="http://www.w3.org/2000/svg" xmlns:xlink="http://www.w3.org/1999/xlink" version="1.1" id="Capa_1" x="0px" y="0px" viewBox="0 0 297.333 297.333" style="enable-background:new 0 0 297.333 297.333;" xml:space="preserve" width="512px" height="512px">
<path d="M287.833,231.167H271.5v-87c0-8.284-6.716-15-15-15h-92.833v-63H180c5.247,0,9.5-4.253,9.5-9.5v-45  c0-5.247-4.253-9.5-9.5-9.5h-62.667c-5.246,0-9.5,4.253-9.5,9.5v45c0,5.247,4.254,9.5,9.5,9.5h16.334v63H40.833  c-8.284,0-15,6.716-15,15v87H9.5c-5.247,0-9.5,4.253-9.5,9.5v45c0,5.247,4.253,9.5,9.5,9.5h62.667c5.247,0,9.5-4.253,9.5-9.5v-45  c0-5.247-4.253-9.5-9.5-9.5H55.833v-72h77.834v72h-16.334c-5.246,0-9.5,4.253-9.5,9.5v45c0,5.247,4.254,9.5,9.5,9.5H180  c5.247,0,9.5-4.253,9.5-9.5v-45c0-5.247-4.253-9.5-9.5-9.5h-16.333v-72H241.5v72h-16.333c-5.247,0-9.5,4.253-9.5,9.5v45  c0,5.247,4.253,9.5,9.5,9.5h62.666c5.247,0,9.5-4.253,9.5-9.5v-45C297.333,235.42,293.08,231.167,287.833,231.167z" fill="#406331"/>
<g>
</g>
<g>
</g>
<g>
</g>
<g>
</g>
<g>
</g>
<g>
</g>
<g>
</g>
<g>
</g>
<g>
</g>
<g>
</g>
<g>
</g>
<g>
</g>
<g>
</g>
<g>
</g>
<g>
</g>
</svg>
