<?xml version="1.0" encoding="iso-8859-1"?>
<!-- Generator: Adobe Illustrator 19.0.0, SVG Export Plug-In . SVG Version: 6.00 Build 0)  -->
<svg xmlns="http://www.w3.org/2000/svg" xmlns:xlink="http://www.w3.org/1999/xlink" version="1.1" id="Capa_1" x="0px" y="0px" viewBox="0 0 502.664 502.664" style="enable-background:new 0 0 502.664 502.664;" xml:space="preserve" width="512px" height="512px">
<g>
	<g>
		<path d="M251.364,0C112.599,0,0.022,112.535,0.022,251.321c0,138.808,112.578,251.343,251.321,251.343    c138.83,0,251.3-112.535,251.3-251.343C502.664,112.513,390.172,0,251.364,0z M295.11,422.917h-87.34V213.723h87.34V422.917z     M251.364,177.139c-26.899,0-48.728-21.765-48.728-48.707c0-26.899,21.83-48.75,48.728-48.75c26.92,0,48.707,21.851,48.707,48.75    C300.05,155.374,278.285,177.139,251.364,177.139z" fill="#406331"/>
	</g>
	<g>
	</g>
	<g>
	</g>
	<g>
	</g>
	<g>
	</g>
	<g>
	</g>
	<g>
	</g>
	<g>
	</g>
	<g>
	</g>
	<g>
	</g>
	<g>
	</g>
	<g>
	</g>
	<g>
	</g>
	<g>
	</g>
	<g>
	</g>
	<g>
	</g>
</g>
<g>
</g>
<g>
</g>
<g>
</g>
<g>
</g>
<g>
</g>
<g>
</g>
<g>
</g>
<g>
</g>
<g>
</g>
<g>
</g>
<g>
</g>
<g>
</g>
<g>
</g>
<g>
</g>
<g>
</g>
</svg>
