<?xml version="1.0" encoding="iso-8859-1"?>
<!-- Generator: Adobe Illustrator 18.0.0, SVG Export Plug-In . SVG Version: 6.00 Build 0)  -->
<!DOCTYPE svg PUBLIC "-//W3C//DTD SVG 1.1//EN" "http://www.w3.org/Graphics/SVG/1.1/DTD/svg11.dtd">
<svg xmlns="http://www.w3.org/2000/svg" xmlns:xlink="http://www.w3.org/1999/xlink" version="1.1" id="Capa_1" x="0px" y="0px" viewBox="0 0 512 512" style="enable-background:new 0 0 512 512;" xml:space="preserve" width="512px" height="512px">
<g>
	<path d="M480,64H32C14.328,64,0,78.328,0,96v320c0,17.672,14.328,32,32,32h448c17.672,0,32-14.328,32-32V96   C512,78.328,497.672,64,480,64z M448,128v190.375L364.5,214c-2.984-3.719-7.484-5.922-12.266-6c-4.547-0.516-9.344,2-12.422,5.641   l-88.5,104.109l-48.906-41.906c-5.641-4.813-13.859-5.125-19.875-0.75L64,362.02V128H448z" fill="#406331"/>
	<circle cx="160" cy="192" r="32" fill="#406331"/>
</g>
<g>
</g>
<g>
</g>
<g>
</g>
<g>
</g>
<g>
</g>
<g>
</g>
<g>
</g>
<g>
</g>
<g>
</g>
<g>
</g>
<g>
</g>
<g>
</g>
<g>
</g>
<g>
</g>
<g>
</g>
</svg>
