<?xml version="1.0" encoding="iso-8859-1"?>
<!-- Generator: Adobe Illustrator 19.0.0, SVG Export Plug-In . SVG Version: 6.00 Build 0)  -->
<svg xmlns="http://www.w3.org/2000/svg" xmlns:xlink="http://www.w3.org/1999/xlink" version="1.1" id="Capa_1" x="0px" y="0px" viewBox="0 0 384.97 384.97" style="enable-background:new 0 0 384.97 384.97;" xml:space="preserve" width="512px" height="512px">
<g>
	<g id="Arrow_Drop_Left_Square">
		<path d="M360.909,0H24.061C10.767,0,0,10.767,0,24.061v336.848c0,13.293,10.767,24.061,24.061,24.061h336.848    c13.281,0,24.061-10.767,24.061-24.061V24.061C384.97,10.767,374.191,0,360.909,0z M360.909,360.909H24.061V24.061h336.848    V360.909z" fill="#406331"/>
		<path id="Arrow_Drop_Down_3_" d="M240.666,324.818c6.785,0,12.151-5.883,11.97-12.56V72.338    c0.289-10.671-12.872-16.602-20.476-8.926l-119.1,120.291c-4.692,4.74-4.523,12.403,0,17.191l119.004,120.195    C234.242,323.363,237.274,324.818,240.666,324.818z M138.589,192.292l90.119-91.021v182.043L138.589,192.292z" fill="#406331"/>
	</g>
	<g>
	</g>
	<g>
	</g>
	<g>
	</g>
	<g>
	</g>
	<g>
	</g>
	<g>
	</g>
</g>
<g>
</g>
<g>
</g>
<g>
</g>
<g>
</g>
<g>
</g>
<g>
</g>
<g>
</g>
<g>
</g>
<g>
</g>
<g>
</g>
<g>
</g>
<g>
</g>
<g>
</g>
<g>
</g>
<g>
</g>
</svg>
