<?xml version="1.0" encoding="iso-8859-1"?>
<!-- Generator: Adobe Illustrator 16.0.0, SVG Export Plug-In . SVG Version: 6.00 Build 0)  -->
<!DOCTYPE svg PUBLIC "-//W3C//DTD SVG 1.1//EN" "http://www.w3.org/Graphics/SVG/1.1/DTD/svg11.dtd">
<svg xmlns="http://www.w3.org/2000/svg" xmlns:xlink="http://www.w3.org/1999/xlink" version="1.1" id="Capa_1" x="0px" y="0px" width="512px" height="512px" viewBox="0 0 26.362 26.361" style="enable-background:new 0 0 26.362 26.361;" xml:space="preserve">
<g>
	<path d="M24.361,0H2C0.896,0,0,0.896,0,2v22.361c0,1.104,0.896,2,2,2h22.36c1.104,0,2-0.896,2-2V2C26.361,0.896,25.465,0,24.361,0z    M22.361,22.362H4V4h18.36V22.362z M5.236,13.291c-0.78-0.78-0.78-2.047,0-2.828c0.781-0.78,2.048-0.78,2.828,0l3.449,3.447   l6.783-6.785c0.781-0.78,2.047-0.78,2.828,0c0.781,0.781,0.781,2.047,0,2.829l-8.198,8.2c-0.375,0.375-0.884,0.586-1.413,0.586   c-0.531,0-1.039-0.21-1.414-0.586L5.236,13.291z" fill="#406331"/>
</g>
<g>
</g>
<g>
</g>
<g>
</g>
<g>
</g>
<g>
</g>
<g>
</g>
<g>
</g>
<g>
</g>
<g>
</g>
<g>
</g>
<g>
</g>
<g>
</g>
<g>
</g>
<g>
</g>
<g>
</g>
</svg>
