<?xml version="1.0" encoding="iso-8859-1"?>
<!-- Generator: Adobe Illustrator 18.0.0, SVG Export Plug-In . SVG Version: 6.00 Build 0)  -->
<!DOCTYPE svg PUBLIC "-//W3C//DTD SVG 1.1//EN" "http://www.w3.org/Graphics/SVG/1.1/DTD/svg11.dtd">
<svg xmlns="http://www.w3.org/2000/svg" xmlns:xlink="http://www.w3.org/1999/xlink" version="1.1" id="Capa_1" x="0px" y="0px" viewBox="0 0 496.188 496.188" style="enable-background:new 0 0 496.188 496.188;" xml:space="preserve" width="512px" height="512px">
<g>
	<path d="M196.698,108.246c-5.006-16.197-19.999-27.241-36.96-27.241h-41.996c-17.006,0-32.037,11.116-37.01,27.396L1.629,367.257   c-3.45,11.247-1.355,23.452,5.657,32.902c6.992,9.447,18.05,15.025,29.811,15.025c16.67,0,31.287-11.116,35.747-27.167   l16.263-58.612h95.689l17.514,58.246c4.91,16.345,19.953,27.533,37.051,27.533c12.307,0,23.871-5.846,31.156-15.742   c7.301-9.904,9.448-22.679,5.809-34.42L196.698,108.246z M100.018,272.891l19.808-70.913c5.446-19.337,10.426-44.609,15.398-64.451   h0.946c4.974,19.842,10.959,44.625,16.881,64.451l20.832,70.913H100.018z" fill="#406331"/>
	<path d="M495.093,362.394v-69.026c0-46.676-21.128-85.658-87.331-85.658c-24.577,0-45.017,4.506-59.917,9.814   c-9.902,3.531-15.35,14.109-12.473,24.217l0.197,0.665c1.511,5.319,5.156,9.783,10.065,12.352c4.895,2.571,10.62,3.025,15.87,1.253   c10.85-3.661,23.292-6.082,35.309-6.082c30.462,0,36.154,15.028,36.154,25.582v2.853c-70.256-0.415-116.538,24.346-116.538,75.915   c0,31.68,23.953,60.897,64.171,60.897c23.534,0,43.813-8.538,56.824-24.37h1.198l1.596,8.685   c1.207,6.496,6.864,11.221,13.482,11.221h28.767c3.824,0,7.467-1.587,10.054-4.384c2.602-2.797,3.919-6.554,3.626-10.358   C495.4,386.195,495.093,374.461,495.093,362.394z M434.967,338.44c0,3.649-0.389,7.311-1.218,10.554   c-4.053,12.588-16.639,22.736-32.072,22.736c-13.792,0-24.36-7.71-24.36-23.541c0-23.955,25.188-31.664,57.65-31.267V338.44z" fill="#406331"/>
</g>
<g>
</g>
<g>
</g>
<g>
</g>
<g>
</g>
<g>
</g>
<g>
</g>
<g>
</g>
<g>
</g>
<g>
</g>
<g>
</g>
<g>
</g>
<g>
</g>
<g>
</g>
<g>
</g>
<g>
</g>
</svg>
