<?xml version="1.0" encoding="iso-8859-1"?>
<!-- Generator: Adobe Illustrator 16.0.0, SVG Export Plug-In . SVG Version: 6.00 Build 0)  -->
<!DOCTYPE svg PUBLIC "-//W3C//DTD SVG 1.1//EN" "http://www.w3.org/Graphics/SVG/1.1/DTD/svg11.dtd">
<svg xmlns="http://www.w3.org/2000/svg" xmlns:xlink="http://www.w3.org/1999/xlink" version="1.1" id="Capa_1" x="0px" y="0px" width="512px" height="512px" viewBox="0 0 408.328 408.328" style="enable-background:new 0 0 408.328 408.328;" xml:space="preserve">
<g>
	<path d="M146.545,67.478V32.185c0-17.638-14.357-31.989-32.001-31.989H32.001C14.357,0.195,0,14.547,0,32.185v343.959   c0,17.638,14.357,31.989,32.001,31.989h344.326c17.644,0,32.001-14.352,32.001-31.989V68.338L146.545,67.478z M371.751,371.569   H36.57V98.081h335.188v273.488H371.751z M268.171,59.215l-98.062-0.006V35.465c0-11.804,9.605-21.402,21.409-21.402h55.245   c11.798,0,21.409,9.599,21.409,21.402V59.215z M395.525,59.215l-98.06-0.006V35.465c0-11.804,9.599-21.402,21.408-21.402h55.242   c11.798,0,21.409,9.599,21.409,21.402V59.215z" fill="#406331"/>
</g>
<g>
</g>
<g>
</g>
<g>
</g>
<g>
</g>
<g>
</g>
<g>
</g>
<g>
</g>
<g>
</g>
<g>
</g>
<g>
</g>
<g>
</g>
<g>
</g>
<g>
</g>
<g>
</g>
<g>
</g>
</svg>
