<?xml version="1.0" encoding="iso-8859-1"?>
<!-- Generator: Adobe Illustrator 16.0.0, SVG Export Plug-In . SVG Version: 6.00 Build 0)  -->
<!DOCTYPE svg PUBLIC "-//W3C//DTD SVG 1.1//EN" "http://www.w3.org/Graphics/SVG/1.1/DTD/svg11.dtd">
<svg xmlns="http://www.w3.org/2000/svg" xmlns:xlink="http://www.w3.org/1999/xlink" version="1.1" id="Capa_1" x="0px" y="0px" width="512px" height="512px" viewBox="0 0 392.189 392.189" style="enable-background:new 0 0 392.189 392.189;" xml:space="preserve">
<g>
	<g>
		<g>
			<path d="M368.621,17.953H23.568C10.573,17.953,0,28.526,0,41.522v309.146c0,12.996,10.573,23.568,23.568,23.568h345.053     c12.996,0,23.568-10.572,23.568-23.568V41.522C392.189,28.527,381.615,17.953,368.621,17.953z M297.561,57.53     c0-4.806,3.896-8.703,8.701-8.703h8.703c4.808,0,8.703,3.896,8.703,8.703v9.863c0,4.806-3.896,8.702-8.703,8.702h-8.703     c-4.805,0-8.701-3.896-8.701-8.702V57.53z M257.094,57.53c0-4.806,3.898-8.703,8.703-8.703h8.701     c4.807,0,8.703,3.896,8.703,8.703v9.863c0,4.806-3.896,8.702-8.703,8.702h-8.701c-4.805,0-8.703-3.896-8.703-8.702V57.53z      M363.906,345.953H28.282V102.237h335.622v243.716H363.906z M364.133,67.393c0,4.806-3.896,8.702-8.701,8.702h-8.703     c-4.807,0-8.702-3.896-8.702-8.702V57.53c0-4.806,3.896-8.703,8.702-8.703h8.703c4.806,0,8.701,3.896,8.701,8.703V67.393z" fill="#406331"/>
			<path d="M69.348,169.095H214.84c8.284,0,15-6.716,15-15c0-8.284-6.716-15-15-15H69.348c-8.284,0-15,6.716-15,15     C54.348,162.379,61.064,169.095,69.348,169.095z" fill="#406331"/>
			<path d="M69.348,239.096h75.492c8.284,0,15-6.717,15-15c0-8.284-6.716-15-15-15H69.348c-8.284,0-15,6.716-15,15     C54.348,232.379,61.064,239.096,69.348,239.096z" fill="#406331"/>
			<path d="M69.348,309.096H214.84c8.284,0,15-6.717,15-15c0-8.284-6.716-15-15-15H69.348c-8.284,0-15,6.716-15,15     C54.348,302.379,61.064,309.096,69.348,309.096z" fill="#406331"/>
		</g>
	</g>
</g>
<g>
</g>
<g>
</g>
<g>
</g>
<g>
</g>
<g>
</g>
<g>
</g>
<g>
</g>
<g>
</g>
<g>
</g>
<g>
</g>
<g>
</g>
<g>
</g>
<g>
</g>
<g>
</g>
<g>
</g>
</svg>
