<?xml version="1.0" encoding="iso-8859-1"?>
<!-- Generator: Adobe Illustrator 18.1.1, SVG Export Plug-In . SVG Version: 6.00 Build 0)  -->
<svg xmlns="http://www.w3.org/2000/svg" xmlns:xlink="http://www.w3.org/1999/xlink" version="1.1" id="Capa_1" x="0px" y="0px" viewBox="0 0 27.271 27.271" style="enable-background:new 0 0 27.271 27.271;" xml:space="preserve" width="512px" height="512px">
<g>
	<path d="M25.324,1.948H1.953C0.871,1.948,0,2.819,0,3.899v19.477c0,1.074,0.871,1.947,1.953,1.947h23.371   c1.072,0,1.947-0.873,1.947-1.947V3.899C27.271,2.819,26.396,1.948,25.324,1.948z M9.314,3.411c0.535,0,0.973,0.436,0.973,0.975   c0,0.537-0.438,0.973-0.973,0.973c-0.537,0-0.973-0.436-0.973-0.973C8.342,3.846,8.777,3.411,9.314,3.411z M6.334,3.411   c0.535,0,0.973,0.436,0.973,0.975c0,0.537-0.438,0.973-0.973,0.973c-0.541,0-0.977-0.436-0.977-0.973   C5.357,3.846,5.793,3.411,6.334,3.411z M3.41,3.411c0.539,0,0.973,0.436,0.973,0.975c0,0.537-0.434,0.973-0.973,0.973   c-0.537,0-0.973-0.436-0.973-0.973C2.438,3.846,2.873,3.411,3.41,3.411z M25.324,23.376H1.953V6.839h23.371V23.376z" fill="#406331"/>
	<rect x="4.955" y="11.149" width="3.701" height="1.252" fill="#406331"/>
	<rect x="10.506" y="11.149" width="11.812" height="1.252" fill="#406331"/>
	<rect x="4.955" y="14.264" width="3.701" height="1.254" fill="#406331"/>
	<rect x="4.955" y="17.21" width="3.701" height="1.254" fill="#406331"/>
	<rect x="10.506" y="14.264" width="11.812" height="1.254" fill="#406331"/>
	<rect x="10.506" y="17.21" width="11.812" height="1.254" fill="#406331"/>
	<g>
	</g>
	<g>
	</g>
	<g>
	</g>
	<g>
	</g>
	<g>
	</g>
	<g>
	</g>
	<g>
	</g>
	<g>
	</g>
	<g>
	</g>
	<g>
	</g>
	<g>
	</g>
	<g>
	</g>
	<g>
	</g>
	<g>
	</g>
	<g>
	</g>
</g>
<g>
</g>
<g>
</g>
<g>
</g>
<g>
</g>
<g>
</g>
<g>
</g>
<g>
</g>
<g>
</g>
<g>
</g>
<g>
</g>
<g>
</g>
<g>
</g>
<g>
</g>
<g>
</g>
<g>
</g>
</svg>
